<?xml version="1.0" encoding="utf-8"?>
<!-- Generator: Adobe Illustrator 18.1.1, SVG Export Plug-In . SVG Version: 6.00 Build 0)  -->
<svg version="1.1" id="Layer_1" xmlns="http://www.w3.org/2000/svg" xmlns:xlink="http://www.w3.org/1999/xlink" x="0px" y="0px"
	 viewBox="0 0 960 560" enable-background="new 0 0 960 560" xml:space="preserve">
<symbol  id="Regal_Vector_Pack_09" viewBox="-105.7 -111.7 211.5 223.5">
	<path fill="#231F20" d="M16.5,94.8c-2.6,1.6-3.2,5.3-3.2,5.3c-2-3-0.7-6.9-0.7-6.9C14.8,93.2,16.5,94.8,16.5,94.8z M-6.5,57.9
		c0,0,13.5-7.8,15.9-20.6c0,0,2.2,6.1-0.4,12c0,0,6.9-4.4,9.7-14.1c0,0,3.5,8.6,0.9,14.1c0,0,7.8-2.3,9.5-8.6c0,0,2.5,9.1-3.2,13.9
		c0,0,7.7,0.2,11.6-5.8c0,0,0.6,6.8-7.2,12.5s-11.4,15.8-4.4,21.4s9.2,2.7,10.7,6.1s-3.9,7-9.3,4.2c0,0-0.4,3.2-3.9,2.6
		s-8.8-4.8-12.6-3.6c0,0,3-3.3,1.1-7.9c0,0-0.1,4.8-4.1,7.8S2.7,101,2.7,101s-6.5-7.6-0.8-18.2C1.8,82.7-7.9,75.1-6.5,57.9z
		 M23.7,90.6c0,0-2.1-4.3-6.7-3.7C17.1,86.9,15.8,89.7,23.7,90.6z M-12.9-99.7c4.8-5.7,2.8-12,2.8-12c4,2.9,4.5,9.7,4.6,11.7
		C-8.5-100.5-11.1-100.2-12.9-99.7z M23.3,75.6c0.1-4.1,2.6-6.2,9.2-6c6.7,0.2,8.8,3.9,8.8,3.9s-2.8-1.6-7.9-0.7s-2.9,5.4,4,8.4
		s13.1,0.7,13.1,0.7c-4.6,7.4-11.9,7.5-11.9,7.5c-1.1-4.3-1.6-2.5-8.5-5.5C23,80.8,23.3,75.6,23.3,75.6z M88.2,52.1
		c-0.6-3.5-2.9-4.2-2.9-4.2c4.9,0.5,6.1-3.4,6.1-3.4C92.2,48.5,88.2,52.1,88.2,52.1z M-1.9-99.2c6.7-2.9,7.9-9.3,7.9-9.3
		c2.3,4.7-0.8,11.4-1.4,12.7C2.4-97.5,0.2-98.5-1.9-99.2z M53.8,19.8c1.5,1.4,3.1,3.1,4.7,5.1c8.9,11.4,12.6,7.6,12.6,7.6
		s0.1,3.5-3.4,2.8c0,0,4.8,5.1,9.4,3.8c0,0-0.5,4-4.1,3.5c0,0,2.1,4.1,7.7,3.9c0,0-1.1,2.6-4.4,2.2c0.8,0.6,1.6,1.3,2,2l0,0
		c0.6-1.2,1.7-2.1,3.1-2.5c2.6-0.7,5.3,0.8,6,3.4c0.3,1.2,0.2,2.3-0.3,3.3C87,55,87,55.2,86.9,55.3c0,0,0,0.1-0.1,0.1
		c-0.6,1.1-1.7,2-3.1,2.5c-3.1,1-6.6-0.4-7.7-0.9l0,0c0.3,0.8,0.6,1.5,1,2c1.5-0.4,3.1-0.2,4.4,0.6c2.6,1.6,3.4,5,1.8,7.6
		c-0.7,1.1-1.8,1.9-3,2.3c-0.1,0.1-0.3,0.1-0.5,0.1h-0.1c-1.4,0.3-3,0.1-4.4-0.7c-1.8-1-3.1-2.7-3.9-4.2c-0.1,0.4-0.2,0.8-0.3,1.2
		c0,0.6,0.1,1.2,0.2,1.7c1.5,0.1,2.9,0.9,3.9,2.2c1.8,2.5,1.3,5.9-1.1,7.8c-1.1,0.8-2.4,1.1-3.6,1.1c-0.2,0-0.3,0-0.5,0h-0.1
		c-1.4-0.2-2.8-1-3.9-2.3c-2.3-2.8-2.3-7-2.2-8.4c-1.3,1.1-2.7,1.6-2.7,1.6c4.1-5.9,2.5-13.4,1.4-16.9c-1.4-3.5-3.9-6.7-7.5-10.4
		c0.2,1.7-0.1,2.7-0.1,2.7c-1.3-2-2.6-3.8-3.9-5.3C52.5,37,55.3,29.4,53.8,19.8z M84.9,62.7c3.3,4.4,7.5,2.4,7.5,2.4
		c-2.8,3.7-8.8,3.2-8.8,3.2C86.1,65.2,84.9,62.7,84.9,62.7z M77.4,74.1c1.5,5.3,6.1,5,6.1,5c-4,2.4-9.3-0.2-9.3-0.2
		C77.6,76.8,77.4,74.1,77.4,74.1z M75-62.6c0-2.7-0.4-5.1-1-7.2c6.3,3.8,12.2,1,12.2,1C83.7-64.3,76.5-62.9,75-62.6z M86,5.4
		c0.5-1.4,1.6-2.6,3.1-3.2c2.8-1.1,6.1,0.3,7.2,3.1c0.5,1.3,0.5,2.6,0.1,3.8c0,0.2-0.1,0.3-0.2,0.4c0,0,0,0.1-0.1,0.1
		c-0.6,1.3-1.7,2.4-3.2,3.2c-1.9,0.8-4,0.8-5.7,0.6c0.2,0.3,0.5,0.6,0.8,1c0.5,0.4,1,0.7,1.5,0.9c1-1.1,2.5-1.8,4.1-1.8
		c3.1,0,5.5,2.5,5.5,5.5c0,1.3-0.5,2.6-1.3,3.5c-0.1,0.1-0.2,0.2-0.3,0.4L97.4,23c-1,1-2.4,1.7-4.1,1.8c-3.6,0.2-7-2.4-8-3.2
		c0.1,1.7-0.3,3.1-0.3,3.1c-2.3-6.8-9.2-10-12.7-11.2c-3.6-0.9-7.7-0.9-12.9-0.2c1.4,0.9,2.1,1.7,2.1,1.7
		c-15.1-1.1-21.9,4.2-24.9,8.2c-1.3,1.9-1.5,3.3-1.5,3.3c6.3-7.9,15.8-8.9,15.8-8.9C56.1,36.1,39,53.4,39,53.4
		c1.4-5.4-0.5-10.7-0.5-10.7c-2.1,7-7.5,8.6-7.5,8.6c3-9.2-1.9-16.5-1.9-16.5C28.6,42.2,22.7,45,22.7,45c0.7-8.3-4.4-14.8-4.4-14.8
		c-0.5,6.3-6,12.6-6,12.6c0.7-5.5-3-9.1-4.1-10.1l-0.1,0.1C7.6,37,4.9,48.1-8.8,55.7c-17.3,9.6-73.3,19.9-94.8,56.1
		c0,0,3.5-29.7,53-50c18.9-7.8,31.3-12.5,39.5-16c-0.9-2.4-0.9-6.9,9-11.1c0,0-5.4-4.4,6.1-9.1c0,0-3.5-4.2,7-8.2
		c0,0,5.8-8.4,0.5-14.7c0,0,5.1,0.7,6.1,4c0,0,3.7-5.8-0.5-9.6c0,0,9.7-1,11.9,8.9c2.3-2,7.8-5.7,18.4-6C61.8-0.4,61-5.6,61-5.6
		s2.9,2,0.2,4.4c0,0,7-0.8,8.6-5.3c0,0,2.9,2.8,0.4,5.4c0,0,4.6,0.8,7.7-3.9c0,0,1.5,2.5-0.8,4.8c1-0.3,2-0.5,2.8-0.4l0,0
		c-0.6-1.2-0.7-2.6-0.2-4c1-2.5,3.8-3.8,6.4-2.8c1.1,0.4,2,1.2,2.5,2.2c0.1,0.1,0.1,0.2,0.2,0.4c0,0,0,0.1,0.1,0.1
		c0.5,1.2,0.6,2.6,0.1,4c-1,3.1-4.3,5.1-5.3,5.6l0,0C84.6,5.3,85.3,5.4,86,5.4z M81.8-7.8c3.3-3.6,0.9-6.9,0.9-6.9
		c3.7,1.8,4.2,7.1,4.2,7.1C83.7-9.3,81.8-7.8,81.8-7.8z M100,19.6c0.3-4-1.9-5.5-1.9-5.5c5.2,2,7.7-1.9,7.7-1.9
		C105.4,16.9,100,19.6,100,19.6z M93.5,1.3c5.5-0.1,6.4-4.6,6.4-4.6c1.3,4.5-2.6,9-2.6,9C96.1,1.8,93.5,1.3,93.5,1.3z M72.6-73.3
		c-1.4-2.7-3.2-4.6-4.6-5.8c7.4,0.5,11.4-4.7,11.4-4.7C79.3-78.9,74.1-74.5,72.6-73.3z M15.2-18.5c0,0,8.1-3.2,10.2-10.3
		c0,0,0.7,9.6,7.9,16.1C40.4-6.2,43-2,43-2s-7.5-0.4-12.6,3c0,0-5.1-9.6-19.6-6.5c0,0,5.8,2.6,6.1,7.7c0,0-5.6-4.4-10.5-1.4
		c0,0,8.6,5.8,3.2,14.4c0,0-3.2,0.5-3.5,1.8c0,0,0.2-28.4-17.5-37.1C-29.2-29-30.2-7.8-30.2-7.8s-2.9-4.1-2.1-9.2
		c-4,2.6-10.2,7.8-16.8,17.9c-6.6,10-15.8,15.1-24,15.1c-3.9,0-7.6-1.2-10.3-3.9c-2.7-2.6-4.3-6.5-4.3-11.1c0-0.1,0-0.2,0-0.4
		c0.1-5,2.5-9.2,5.7-12.6c4.8-5.2,11.4-9.6,17.5-15.1c6-5.5,11.4-12,13.9-21.3c0.7-2.4,0.9-4.6,0.9-6.5c0-4.4-1.4-7.3-3.5-9.3
		c-1.9-1.8-4.4-2.8-7.3-3c-5.7,0.4-15.5,2.8-15.6,14.7c-0.2,16.8-7.5,26.6-7.5,26.6S-81-34-84-40.5c0,0-4.4,23.4-21.7,33.2
		c0,0,10.5-17,9.3-32c0,0-3.5,1.2-3.5,7c0,0-6.1-13.3,7-25c0,0-4.9-0.5-8.4,4c0,0,4-16.8,26.9-21c14.2-2.6,23.1,1.1,27.4,7.7
		c2.3,3.1,3.7,7.2,3.7,11.9c0,2.5-0.4,5.3-1.2,8.2C-48.4-32-58.3-23.4-66.6-16.7c-4.2,3.4-8,6.4-10.6,9.2c-2.6,2.9-4,5.5-4,8.5
		c0,0.1,0,0.1,0,0.2c0,3.2,1,5.2,2.3,6.5c1.4,1.3,3.4,2.1,6,2.1c5.4,0,13-3.7,18.6-12.3c5.9-9,11.7-14.6,16.1-18
		c-2.6-0.7-5.4-2.4-8.1-6.2c0,0,5.2,4,17.8-1.5c-1.9-0.3-4.5-1.1-6.3-3c0,0,14,2.6,25.2-6.5C0.5-46-3.1-54.6-7.8-55
		c-0.6,1-2.4,3.6-7,1c-5.6-3.2-10.7-12.4-9.3-28c0,0,1.3,3.2,2.7,6.1c0-0.2,0-0.4,0.1-0.5C-19.5-88.7-18.5-97-10.8-98
		c5.3-1.1,11.6,1.6,13.8,3.2c4.4,3.2,7,8.9,0.9,10.9c-6.1,1.9-8.1-1.8-10.2-1.8c-0.3,0-0.5,0.1-0.7,0.4C-7.2-84.7-7.3-84-7.3-83
		C-7.1-76.8-9-63.8,3.2-64.5C15.5-65.2,30-52.6,25.8-38.8C21.6-24.9,15.2-18.5,15.2-18.5z M10.3-88c-0.5-2.2-1.6-4.3-3.4-6
		c-0.3-0.4-0.5-0.6-0.5-0.6c7.4,2.3,12.6-2.3,12.6-2.3C17.9-92.1,12.1-88.9,10.3-88z M75-60.5c2.5,7.4,9.2,8.9,9.2,8.9
		c-4.5,2-10.5-0.8-12.3-1.8c1.5-1.7,2.6-3.8,2.9-6.3C75-60.2,75-60.5,75-60.5z M65-56.2c-5.1-3.9-3.3-7.6-4.5-9.3
		c-0.2-0.2-0.4-0.3-0.7-0.4c-0.6,0.2-1.3,0.5-2,1.1c-5,3.8-16.7,9.8-8.9,19.4c7.7,9.5,6,28.7-7.7,33.4c-1,0.3-2,0.6-2.9,0.9
		c-2.3-1.8-10.9-9.4-10.9-21.3c0-3.4,0.3-5.6,0.6-7.2c6.4-1.1,8.5-6.2,6.8-9.2c-1.2,0.2-4.3,0.1-4.9-5.1
		c-0.7-6.4,3.9-15.9,17.3-23.9c0,0-1.9,2.9-3.4,5.8c0.2-0.1,0.3-0.2,0.5-0.3c11-5.7,18.3-9.8,23.7-4.1c4,3.7,5.5,10.4,5.5,13.1
		C73.3-57.9,70.1-52.4,65-56.2z M-27.9,50.3c-4.8,1.9-10.5,4.2-17.1,6.9c-12.7,4.4-26.2,9.9-35.1,15.8c0,0,6.8-18.5,42-28.3
		c0,0-26.9,4.4-35.7,11.7c0,0,9.6-18.2,38.3-22.9c0,0-10.3-1.2-21.3,3.5c0,0,2.6-10,20.3-13.1C-21.2,21.3-2.2,13.1,1.3,0.2
		C3.9,8.8,4,16.8,4,17v2c-1.3,1.1-2.1,2.3-2.4,3.6c-0.2,0.7-0.2,1.4-0.1,1.9c-4.1,2-6.3,4.2-6.7,6.8c-0.1,1,0,1.8,0.2,2.5
		c-7.4,3.7-8.7,7.8-8.4,10.7C-17.4,46.1-22.2,48-27.9,50.3z"/>
</symbol>
<rect x="364.8" y="181" fill="none" width="512.5" height="220.9"/>
<text transform="matrix(0.8248 0 0 1 367.1631 261.9268)" opacity="0.85" fill="#4BB0DF" enable-background="new    " font-family="'Rockwell-ExtraBold'" font-size="45.9838">PRODUCE </text>
<text transform="matrix(0.8248 0 0 1 592.8369 261.9268)" opacity="0.85" fill="#4BB0DF" enable-background="new    " font-family="'Rockwell'" font-size="45.9838">CAPITAL</text>
<use xlink:href="#Regal_Vector_Pack_09"  width="211.5" height="223.5" x="-105.7" y="-111.7" transform="matrix(0.4011 0 0 -0.4391 303.2727 245.9183)" overflow="visible"/>
</svg>
